<mxfile host="65bd71144e">
    <diagram id="xpTfQwLlDye6NHtaUpQL" name="Pagina-1">
        <mxGraphModel dx="5818" dy="3366" grid="1" gridSize="1" guides="1" tooltips="1" connect="1" arrows="1" fold="1" page="1" pageScale="1" pageWidth="827" pageHeight="1169" background="#ffffff" math="0" shadow="1">
            <root>
                <mxCell id="0"/>
                <mxCell id="1" parent="0"/>
                <mxCell id="140" value="" style="group" vertex="1" connectable="0" parent="1">
                    <mxGeometry x="-2970" y="-1360" width="1469.96" height="1051.5" as="geometry"/>
                </mxCell>
                <mxCell id="61" value="&lt;font style=&quot;font-size: 20px&quot;&gt;CORSO DI LAUREA&lt;br&gt;IN&lt;/font&gt;" style="rounded=1;whiteSpace=wrap;html=1;" parent="140" vertex="1">
                    <mxGeometry x="454.3236363636364" y="403.99646446355814" width="1015.6363636363636" height="234.77976459936622" as="geometry"/>
                </mxCell>
                <mxCell id="100" style="edgeStyle=orthogonalEdgeStyle;rounded=0;orthogonalLoop=1;jettySize=auto;html=1;fontSize=7;strokeColor=#000000;" parent="140" source="60" edge="1">
                    <mxGeometry relative="1" as="geometry">
                        <mxPoint x="954" y="408" as="targetPoint"/>
                    </mxGeometry>
                </mxCell>
                <mxCell id="60" value="DIPARTIMENTO" style="rounded=0;whiteSpace=wrap;html=1;fillColor=#a20025;strokeColor=#6F0000;fontColor=#ffffff;fontSize=30;" parent="140" vertex="1">
                    <mxGeometry x="505.52272727272725" width="896.5329545454546" height="234.77976459936622" as="geometry"/>
                </mxCell>
                <mxCell id="76" value="MATERIA O CORSO" style="whiteSpace=wrap;html=1;aspect=fixed;fontSize=7;" parent="140" vertex="1">
                    <mxGeometry x="611.4573870894446" y="711.880876716463" width="86.70394051452993" height="86.70394051452993" as="geometry"/>
                </mxCell>
                <mxCell id="92" style="edgeStyle=orthogonalEdgeStyle;rounded=0;orthogonalLoop=1;jettySize=auto;html=1;fontSize=7;strokeColor=#000000;" parent="140" source="61" target="76" edge="1">
                    <mxGeometry x="293.9599999999998" y="-47.089999999999975" as="geometry"/>
                </mxCell>
                <mxCell id="84" value="MATERIA O CORSO" style="whiteSpace=wrap;html=1;aspect=fixed;fontSize=7;" parent="140" vertex="1">
                    <mxGeometry x="437.6190909090909" y="711.880876716463" width="86.70394051452993" height="86.70394051452993" as="geometry"/>
                </mxCell>
                <mxCell id="91" style="edgeStyle=orthogonalEdgeStyle;rounded=0;orthogonalLoop=1;jettySize=auto;html=1;entryX=0.5;entryY=0;entryDx=0;entryDy=0;fontSize=7;strokeColor=#000000;" parent="140" source="61" target="84" edge="1">
                    <mxGeometry x="293.9599999999998" y="-47.089999999999975" as="geometry"/>
                </mxCell>
                <mxCell id="85" value="MATERIA O CORSO" style="whiteSpace=wrap;html=1;aspect=fixed;fontSize=7;" parent="140" vertex="1">
                    <mxGeometry x="785.2956832697989" y="712.9759809904767" width="86.70394051452993" height="86.70394051452993" as="geometry"/>
                </mxCell>
                <mxCell id="93" style="edgeStyle=orthogonalEdgeStyle;rounded=0;orthogonalLoop=1;jettySize=auto;html=1;fontSize=7;strokeColor=#000000;" parent="140" source="61" target="85" edge="1">
                    <mxGeometry x="293.9599999999998" y="-47.089999999999975" as="geometry"/>
                </mxCell>
                <mxCell id="87" value="MATERIA O CORSO" style="whiteSpace=wrap;html=1;aspect=fixed;fontSize=7;" parent="140" vertex="1">
                    <mxGeometry x="1134.009834641892" y="715.0529028894684" width="86.70394051452993" height="86.70394051452993" as="geometry"/>
                </mxCell>
                <mxCell id="95" style="edgeStyle=orthogonalEdgeStyle;rounded=0;orthogonalLoop=1;jettySize=auto;html=1;entryX=0.5;entryY=0;entryDx=0;entryDy=0;fontSize=7;strokeColor=#000000;" parent="140" source="61" target="87" edge="1">
                    <mxGeometry x="293.9599999999998" y="-47.089999999999975" as="geometry"/>
                </mxCell>
                <mxCell id="88" value="MATERIA O CORSO" style="whiteSpace=wrap;html=1;aspect=fixed;fontSize=7;" parent="140" vertex="1">
                    <mxGeometry x="960.1715384615381" y="715.0529028894684" width="86.70394051452993" height="86.70394051452993" as="geometry"/>
                </mxCell>
                <mxCell id="94" style="edgeStyle=orthogonalEdgeStyle;rounded=0;orthogonalLoop=1;jettySize=auto;html=1;entryX=0.5;entryY=0;entryDx=0;entryDy=0;fontSize=7;strokeColor=#000000;" parent="140" source="61" target="88" edge="1">
                    <mxGeometry x="293.9599999999998" y="-47.089999999999975" as="geometry"/>
                </mxCell>
                <mxCell id="89" value="MATERIA O CORSO" style="whiteSpace=wrap;html=1;aspect=fixed;fontSize=7;" parent="140" vertex="1">
                    <mxGeometry x="1307.8481308222467" y="716.1480071634821" width="86.70394051452993" height="86.70394051452993" as="geometry"/>
                </mxCell>
                <mxCell id="96" style="edgeStyle=orthogonalEdgeStyle;rounded=0;orthogonalLoop=1;jettySize=auto;html=1;fontSize=7;strokeColor=#000000;" parent="140" source="61" target="89" edge="1">
                    <mxGeometry x="293.9599999999998" y="-47.089999999999975" as="geometry"/>
                </mxCell>
                <mxCell id="117" style="edgeStyle=none;rounded=0;orthogonalLoop=1;jettySize=auto;html=1;fontSize=7;strokeColor=#000000;" parent="140" source="97" edge="1">
                    <mxGeometry relative="1" as="geometry">
                        <mxPoint x="216" y="712" as="targetPoint"/>
                    </mxGeometry>
                </mxCell>
                <mxCell id="118" style="edgeStyle=none;rounded=0;orthogonalLoop=1;jettySize=auto;html=1;fontSize=7;strokeColor=#000000;" parent="140" source="97" edge="1">
                    <mxGeometry relative="1" as="geometry">
                        <mxPoint x="275" y="715" as="targetPoint"/>
                    </mxGeometry>
                </mxCell>
                <mxCell id="97" value="PROF" style="ellipse;whiteSpace=wrap;html=1;aspect=fixed;fontSize=7;" parent="140" vertex="1">
                    <mxGeometry x="193" y="755.0026210955184" width="65.59153066817855" height="65.59153066817855" as="geometry"/>
                </mxCell>
                <mxCell id="101" value="PROF" style="ellipse;whiteSpace=wrap;html=1;aspect=fixed;fontSize=7;" parent="140" vertex="1">
                    <mxGeometry x="196" y="839.0026210955184" width="65.59153066817855" height="65.59153066817855" as="geometry"/>
                </mxCell>
                <mxCell id="108" style="edgeStyle=none;rounded=0;orthogonalLoop=1;jettySize=auto;html=1;exitX=0;exitY=0.5;exitDx=0;exitDy=0;entryX=1;entryY=0.5;entryDx=0;entryDy=0;fontSize=7;strokeColor=#000000;" parent="140" source="102" target="97" edge="1">
                    <mxGeometry relative="1" as="geometry"/>
                </mxCell>
                <mxCell id="109" style="edgeStyle=none;rounded=0;orthogonalLoop=1;jettySize=auto;html=1;entryX=1;entryY=0.5;entryDx=0;entryDy=0;fontSize=7;strokeColor=#000000;" parent="140" source="102" target="101" edge="1">
                    <mxGeometry relative="1" as="geometry"/>
                </mxCell>
                <mxCell id="102" value="PROFESSORI" style="ellipse;whiteSpace=wrap;html=1;aspect=fixed;fontSize=7;" parent="140" vertex="1">
                    <mxGeometry x="275" y="801.0026210955184" width="65.59153066817855" height="65.59153066817855" as="geometry"/>
                </mxCell>
                <mxCell id="103" style="edgeStyle=orthogonalEdgeStyle;rounded=0;orthogonalLoop=1;jettySize=auto;html=1;entryX=0.5;entryY=0;entryDx=0;entryDy=0;fontSize=7;strokeColor=#000000;" parent="140" source="84" target="102" edge="1">
                    <mxGeometry relative="1" as="geometry"/>
                </mxCell>
                <mxCell id="111" value="APPELLI" style="shape=hexagon;perimeter=hexagonPerimeter2;whiteSpace=wrap;html=1;fixedSize=1;fontSize=7;" parent="140" vertex="1">
                    <mxGeometry x="106" y="711.88" width="78" height="54" as="geometry"/>
                </mxCell>
                <mxCell id="114" style="edgeStyle=none;rounded=0;orthogonalLoop=1;jettySize=auto;html=1;entryX=1;entryY=0.5;entryDx=0;entryDy=0;fontSize=7;strokeColor=#000000;" parent="140" source="97" target="111" edge="1">
                    <mxGeometry relative="1" as="geometry"/>
                </mxCell>
                <mxCell id="115" value="APPELLI" style="shape=hexagon;perimeter=hexagonPerimeter2;whiteSpace=wrap;html=1;fixedSize=1;fontSize=7;" parent="140" vertex="1">
                    <mxGeometry x="163" y="657" width="78" height="54" as="geometry"/>
                </mxCell>
                <mxCell id="116" value="APPELLI" style="shape=hexagon;perimeter=hexagonPerimeter2;whiteSpace=wrap;html=1;fixedSize=1;fontSize=7;" parent="140" vertex="1">
                    <mxGeometry x="252" y="658.98" width="78" height="54" as="geometry"/>
                </mxCell>
                <mxCell id="121" style="edgeStyle=none;rounded=0;orthogonalLoop=1;jettySize=auto;html=1;entryX=0;entryY=0.5;entryDx=0;entryDy=0;fontSize=7;strokeColor=#000000;" parent="140" source="120" target="61" edge="1">
                    <mxGeometry relative="1" as="geometry"/>
                </mxCell>
                <mxCell id="122" style="edgeStyle=none;rounded=0;orthogonalLoop=1;jettySize=auto;html=1;entryX=0.5;entryY=0;entryDx=0;entryDy=0;fontSize=7;strokeColor=#000000;" parent="140" source="120" target="116" edge="1">
                    <mxGeometry relative="1" as="geometry"/>
                </mxCell>
                <mxCell id="123" style="edgeStyle=none;rounded=0;orthogonalLoop=1;jettySize=auto;html=1;entryX=0.5;entryY=0;entryDx=0;entryDy=0;fontSize=7;strokeColor=#000000;" parent="140" source="120" target="115" edge="1">
                    <mxGeometry relative="1" as="geometry"/>
                </mxCell>
                <mxCell id="124" style="edgeStyle=none;rounded=0;orthogonalLoop=1;jettySize=auto;html=1;entryX=0.375;entryY=0;entryDx=0;entryDy=0;fontSize=7;strokeColor=#000000;" parent="140" source="120" target="111" edge="1">
                    <mxGeometry relative="1" as="geometry"/>
                </mxCell>
                <mxCell id="120" value="&lt;font style=&quot;font-size: 26px&quot;&gt;studenti&lt;/font&gt;" style="shape=note;whiteSpace=wrap;html=1;backgroundOutline=1;darkOpacity=0.05;fontSize=7;labelBackgroundColor=#000000;fillColor=#990000;" parent="140" vertex="1">
                    <mxGeometry x="106" y="226" width="228" height="300" as="geometry"/>
                </mxCell>
                <mxCell id="125" value="APPELLI" style="shape=hexagon;perimeter=hexagonPerimeter2;whiteSpace=wrap;html=1;fixedSize=1;fontSize=7;" parent="140" vertex="1">
                    <mxGeometry x="58" y="877" width="78" height="54" as="geometry"/>
                </mxCell>
                <mxCell id="137" style="edgeStyle=none;rounded=0;orthogonalLoop=1;jettySize=auto;html=1;entryX=1;entryY=0.5;entryDx=0;entryDy=0;fontSize=7;strokeColor=#000000;" parent="140" source="101" target="125" edge="1">
                    <mxGeometry relative="1" as="geometry"/>
                </mxCell>
                <mxCell id="126" value="APPELLI" style="shape=hexagon;perimeter=hexagonPerimeter2;whiteSpace=wrap;html=1;fixedSize=1;fontSize=7;" parent="140" vertex="1">
                    <mxGeometry x="123" y="931" width="78" height="54" as="geometry"/>
                </mxCell>
                <mxCell id="129" style="edgeStyle=none;rounded=0;orthogonalLoop=1;jettySize=auto;html=1;fontSize=7;strokeColor=#000000;" parent="140" source="101" target="126" edge="1">
                    <mxGeometry relative="1" as="geometry"/>
                </mxCell>
                <mxCell id="127" value="APPELLI" style="shape=hexagon;perimeter=hexagonPerimeter2;whiteSpace=wrap;html=1;fixedSize=1;fontSize=7;" parent="140" vertex="1">
                    <mxGeometry x="214" y="938.98" width="78" height="54" as="geometry"/>
                </mxCell>
                <mxCell id="128" style="edgeStyle=none;rounded=0;orthogonalLoop=1;jettySize=auto;html=1;fontSize=7;strokeColor=#000000;" parent="140" source="101" target="127" edge="1">
                    <mxGeometry relative="1" as="geometry"/>
                </mxCell>
                <mxCell id="131" value="VOTI" style="shape=parallelogram;perimeter=parallelogramPerimeter;whiteSpace=wrap;html=1;fixedSize=1;labelBackgroundColor=#000000;fontSize=7;fillColor=#990000;" parent="140" vertex="1">
                    <mxGeometry y="966" width="73" height="36.5" as="geometry"/>
                </mxCell>
                <mxCell id="138" style="edgeStyle=none;rounded=0;orthogonalLoop=1;jettySize=auto;html=1;fontSize=7;strokeColor=#000000;" parent="140" source="125" target="131" edge="1">
                    <mxGeometry relative="1" as="geometry"/>
                </mxCell>
                <mxCell id="132" value="VOTI" style="shape=parallelogram;perimeter=parallelogramPerimeter;whiteSpace=wrap;html=1;fixedSize=1;labelBackgroundColor=#000000;fontSize=7;fillColor=#990000;" parent="140" vertex="1">
                    <mxGeometry x="90" y="1015" width="73" height="36.5" as="geometry"/>
                </mxCell>
                <mxCell id="135" style="edgeStyle=none;rounded=0;orthogonalLoop=1;jettySize=auto;html=1;fontSize=7;strokeColor=#000000;" parent="140" source="126" target="132" edge="1">
                    <mxGeometry relative="1" as="geometry"/>
                </mxCell>
                <mxCell id="134" value="VOTI" style="shape=parallelogram;perimeter=parallelogramPerimeter;whiteSpace=wrap;html=1;fixedSize=1;labelBackgroundColor=#000000;fontSize=7;fillColor=#990000;" parent="140" vertex="1">
                    <mxGeometry x="219" y="1014" width="73" height="36.5" as="geometry"/>
                </mxCell>
                <mxCell id="139" style="edgeStyle=none;rounded=0;orthogonalLoop=1;jettySize=auto;html=1;fontSize=7;strokeColor=#000000;" parent="140" source="127" target="134" edge="1">
                    <mxGeometry relative="1" as="geometry"/>
                </mxCell>
                <mxCell id="419" value="" style="group" vertex="1" connectable="0" parent="1">
                    <mxGeometry x="-108" y="-971" width="1899" height="1100" as="geometry"/>
                </mxCell>
                <mxCell id="141" value="DEPARTMENTS" style="shape=table;startSize=30;container=1;collapsible=0;childLayout=tableLayout;fixedRows=1;rowLines=0;fontStyle=1;align=center;swimlaneFillColor=#ffffff;fontSize=25;" vertex="1" parent="419">
                    <mxGeometry x="1512" width="387" height="273" as="geometry"/>
                </mxCell>
                <mxCell id="142" value="" style="shape=partialRectangle;html=1;whiteSpace=wrap;collapsible=0;dropTarget=0;pointerEvents=0;fillColor=none;top=0;left=0;bottom=1;right=0;points=[[0,0.5],[1,0.5]];portConstraint=eastwest;" vertex="1" parent="141">
                    <mxGeometry y="30" width="387" height="30" as="geometry"/>
                </mxCell>
                <mxCell id="143" value="&lt;font style=&quot;font-size: 20px&quot;&gt;PK&lt;/font&gt;" style="shape=partialRectangle;html=1;whiteSpace=wrap;connectable=0;fillColor=none;top=0;left=0;bottom=0;right=0;overflow=hidden;labelBackgroundColor=none;labelBorderColor=none;fontColor=#000000;" vertex="1" parent="142">
                    <mxGeometry width="86" height="30" as="geometry"/>
                </mxCell>
                <mxCell id="144" value="Id" style="shape=partialRectangle;html=1;whiteSpace=wrap;connectable=0;fillColor=none;top=0;left=0;bottom=0;right=0;align=left;spacingLeft=6;overflow=hidden;labelBackgroundColor=none;labelBorderColor=none;fontColor=#000000;fontSize=20;" vertex="1" parent="142">
                    <mxGeometry x="86" width="301" height="30" as="geometry"/>
                </mxCell>
                <mxCell id="145" value="" style="shape=partialRectangle;html=1;whiteSpace=wrap;collapsible=0;dropTarget=0;pointerEvents=0;fillColor=none;top=0;left=0;bottom=0;right=0;points=[[0,0.5],[1,0.5]];portConstraint=eastwest;" vertex="1" parent="141">
                    <mxGeometry y="60" width="387" height="23" as="geometry"/>
                </mxCell>
                <mxCell id="146" value="" style="shape=partialRectangle;html=1;whiteSpace=wrap;connectable=0;fillColor=none;top=0;left=0;bottom=0;right=0;overflow=hidden;labelBackgroundColor=none;labelBorderColor=none;fontColor=#000000;" vertex="1" parent="145">
                    <mxGeometry width="86" height="23" as="geometry"/>
                </mxCell>
                <mxCell id="147" value="name:" style="shape=partialRectangle;html=1;whiteSpace=wrap;connectable=0;fillColor=none;top=0;left=0;bottom=0;right=0;align=left;spacingLeft=6;overflow=hidden;labelBackgroundColor=none;labelBorderColor=none;fontColor=#000000;fontSize=20;" vertex="1" parent="145">
                    <mxGeometry x="86" width="301" height="23" as="geometry"/>
                </mxCell>
                <mxCell id="148" value="" style="shape=partialRectangle;html=1;whiteSpace=wrap;collapsible=0;dropTarget=0;pointerEvents=0;fillColor=none;top=0;left=0;bottom=0;right=0;points=[[0,0.5],[1,0.5]];portConstraint=eastwest;" vertex="1" parent="141">
                    <mxGeometry y="83" width="387" height="30" as="geometry"/>
                </mxCell>
                <mxCell id="149" value="" style="shape=partialRectangle;html=1;whiteSpace=wrap;connectable=0;fillColor=none;top=0;left=0;bottom=0;right=0;overflow=hidden;labelBackgroundColor=none;labelBorderColor=none;fontColor=#000000;" vertex="1" parent="148">
                    <mxGeometry width="86" height="30" as="geometry"/>
                </mxCell>
                <mxCell id="150" value="address:" style="shape=partialRectangle;html=1;whiteSpace=wrap;connectable=0;fillColor=none;top=0;left=0;bottom=0;right=0;align=left;spacingLeft=6;overflow=hidden;labelBackgroundColor=none;labelBorderColor=none;fontColor=#000000;fontSize=20;" vertex="1" parent="148">
                    <mxGeometry x="86" width="301" height="30" as="geometry"/>
                </mxCell>
                <mxCell id="175" value="" style="shape=partialRectangle;html=1;whiteSpace=wrap;collapsible=0;dropTarget=0;pointerEvents=0;fillColor=none;top=0;left=0;bottom=0;right=0;points=[[0,0.5],[1,0.5]];portConstraint=eastwest;" vertex="1" parent="141">
                    <mxGeometry y="113" width="387" height="30" as="geometry"/>
                </mxCell>
                <mxCell id="176" value="" style="shape=partialRectangle;html=1;whiteSpace=wrap;connectable=0;fillColor=none;top=0;left=0;bottom=0;right=0;overflow=hidden;labelBackgroundColor=none;labelBorderColor=none;fontColor=#000000;" vertex="1" parent="175">
                    <mxGeometry width="86" height="30" as="geometry"/>
                </mxCell>
                <mxCell id="177" value="city:" style="shape=partialRectangle;html=1;whiteSpace=wrap;connectable=0;fillColor=none;top=0;left=0;bottom=0;right=0;align=left;spacingLeft=6;overflow=hidden;labelBackgroundColor=none;labelBorderColor=none;fontColor=#000000;fontSize=20;" vertex="1" parent="175">
                    <mxGeometry x="86" width="301" height="30" as="geometry"/>
                </mxCell>
                <mxCell id="178" value="" style="shape=partialRectangle;html=1;whiteSpace=wrap;collapsible=0;dropTarget=0;pointerEvents=0;fillColor=none;top=0;left=0;bottom=0;right=0;points=[[0,0.5],[1,0.5]];portConstraint=eastwest;" vertex="1" parent="141">
                    <mxGeometry y="143" width="387" height="30" as="geometry"/>
                </mxCell>
                <mxCell id="179" value="" style="shape=partialRectangle;html=1;whiteSpace=wrap;connectable=0;fillColor=none;top=0;left=0;bottom=0;right=0;overflow=hidden;labelBackgroundColor=none;labelBorderColor=none;fontColor=#000000;" vertex="1" parent="178">
                    <mxGeometry width="86" height="30" as="geometry"/>
                </mxCell>
                <mxCell id="180" value="phone:" style="shape=partialRectangle;html=1;whiteSpace=wrap;connectable=0;fillColor=none;top=0;left=0;bottom=0;right=0;align=left;spacingLeft=6;overflow=hidden;labelBackgroundColor=none;labelBorderColor=none;fontColor=#000000;fontSize=20;" vertex="1" parent="178">
                    <mxGeometry x="86" width="301" height="30" as="geometry"/>
                </mxCell>
                <mxCell id="181" value="" style="shape=partialRectangle;html=1;whiteSpace=wrap;collapsible=0;dropTarget=0;pointerEvents=0;fillColor=none;top=0;left=0;bottom=0;right=0;points=[[0,0.5],[1,0.5]];portConstraint=eastwest;" vertex="1" parent="141">
                    <mxGeometry y="173" width="387" height="30" as="geometry"/>
                </mxCell>
                <mxCell id="182" value="" style="shape=partialRectangle;html=1;whiteSpace=wrap;connectable=0;fillColor=none;top=0;left=0;bottom=0;right=0;overflow=hidden;labelBackgroundColor=none;labelBorderColor=none;fontColor=#000000;" vertex="1" parent="181">
                    <mxGeometry width="86" height="30" as="geometry"/>
                </mxCell>
                <mxCell id="183" value="e-mail:" style="shape=partialRectangle;html=1;whiteSpace=wrap;connectable=0;fillColor=none;top=0;left=0;bottom=0;right=0;align=left;spacingLeft=6;overflow=hidden;labelBackgroundColor=none;labelBorderColor=none;fontColor=#000000;fontSize=20;" vertex="1" parent="181">
                    <mxGeometry x="86" width="301" height="30" as="geometry"/>
                </mxCell>
                <mxCell id="184" value="" style="shape=partialRectangle;html=1;whiteSpace=wrap;collapsible=0;dropTarget=0;pointerEvents=0;fillColor=none;top=0;left=0;bottom=0;right=0;points=[[0,0.5],[1,0.5]];portConstraint=eastwest;" vertex="1" parent="141">
                    <mxGeometry y="203" width="387" height="30" as="geometry"/>
                </mxCell>
                <mxCell id="185" value="" style="shape=partialRectangle;html=1;whiteSpace=wrap;connectable=0;fillColor=none;top=0;left=0;bottom=0;right=0;overflow=hidden;labelBackgroundColor=none;labelBorderColor=none;fontColor=#000000;" vertex="1" parent="184">
                    <mxGeometry width="86" height="30" as="geometry"/>
                </mxCell>
                <mxCell id="186" value="" style="shape=partialRectangle;html=1;whiteSpace=wrap;connectable=0;fillColor=none;top=0;left=0;bottom=0;right=0;align=left;spacingLeft=6;overflow=hidden;labelBackgroundColor=none;labelBorderColor=none;fontColor=#000000;" vertex="1" parent="184">
                    <mxGeometry x="86" width="301" height="30" as="geometry"/>
                </mxCell>
                <mxCell id="157" value="COURSES" style="shape=table;startSize=30;container=1;collapsible=0;childLayout=tableLayout;fixedRows=1;rowLines=0;fontStyle=1;align=center;swimlaneFillColor=#ffffff;labelBackgroundColor=none;fillColor=#60a917;strokeColor=#2D7600;fontColor=#ffffff;fontSize=25;" vertex="1" parent="419">
                    <mxGeometry x="743" y="115" width="387" height="186" as="geometry"/>
                </mxCell>
                <mxCell id="158" value="" style="shape=partialRectangle;html=1;whiteSpace=wrap;collapsible=0;dropTarget=0;pointerEvents=0;fillColor=none;top=0;left=0;bottom=1;right=0;points=[[0,0.5],[1,0.5]];portConstraint=eastwest;" vertex="1" parent="157">
                    <mxGeometry y="30" width="387" height="30" as="geometry"/>
                </mxCell>
                <mxCell id="159" value="PK" style="shape=partialRectangle;html=1;whiteSpace=wrap;connectable=0;fillColor=none;top=0;left=0;bottom=0;right=0;overflow=hidden;labelBackgroundColor=none;labelBorderColor=none;fontColor=#000000;fontSize=20;" vertex="1" parent="158">
                    <mxGeometry width="86" height="30" as="geometry"/>
                </mxCell>
                <mxCell id="160" value="Id" style="shape=partialRectangle;html=1;whiteSpace=wrap;connectable=0;fillColor=none;top=0;left=0;bottom=0;right=0;align=left;spacingLeft=6;overflow=hidden;labelBackgroundColor=none;labelBorderColor=none;fontColor=#000000;fontSize=20;" vertex="1" parent="158">
                    <mxGeometry x="86" width="301" height="30" as="geometry"/>
                </mxCell>
                <mxCell id="194" value="" style="shape=partialRectangle;html=1;whiteSpace=wrap;collapsible=0;dropTarget=0;pointerEvents=0;fillColor=none;top=0;left=0;bottom=1;right=0;points=[[0,0.5],[1,0.5]];portConstraint=eastwest;" vertex="1" parent="157">
                    <mxGeometry y="60" width="387" height="30" as="geometry"/>
                </mxCell>
                <mxCell id="195" value="FK" style="shape=partialRectangle;html=1;whiteSpace=wrap;connectable=0;fillColor=none;top=0;left=0;bottom=0;right=0;overflow=hidden;labelBackgroundColor=none;labelBorderColor=none;fontColor=#000000;fontSize=20;" vertex="1" parent="194">
                    <mxGeometry width="86" height="30" as="geometry"/>
                </mxCell>
                <mxCell id="196" value="department_id" style="shape=partialRectangle;html=1;whiteSpace=wrap;connectable=0;fillColor=none;top=0;left=0;bottom=0;right=0;align=left;spacingLeft=6;overflow=hidden;labelBackgroundColor=none;labelBorderColor=none;fontColor=#000000;fontSize=20;" vertex="1" parent="194">
                    <mxGeometry x="86" width="301" height="30" as="geometry"/>
                </mxCell>
                <mxCell id="199" value="" style="shape=partialRectangle;html=1;whiteSpace=wrap;collapsible=0;dropTarget=0;pointerEvents=0;fillColor=none;top=0;left=0;bottom=1;right=0;points=[[0,0.5],[1,0.5]];portConstraint=eastwest;" vertex="1" parent="157">
                    <mxGeometry y="90" width="387" height="30" as="geometry"/>
                </mxCell>
                <mxCell id="200" value="" style="shape=partialRectangle;html=1;whiteSpace=wrap;connectable=0;fillColor=none;top=0;left=0;bottom=0;right=0;overflow=hidden;labelBackgroundColor=none;labelBorderColor=none;fontColor=#000000;" vertex="1" parent="199">
                    <mxGeometry width="86" height="30" as="geometry"/>
                </mxCell>
                <mxCell id="201" value="name:" style="shape=partialRectangle;html=1;whiteSpace=wrap;connectable=0;fillColor=none;top=0;left=0;bottom=0;right=0;align=left;spacingLeft=6;overflow=hidden;labelBackgroundColor=none;labelBorderColor=none;fontColor=#000000;fontSize=20;" vertex="1" parent="199">
                    <mxGeometry x="86" width="301" height="30" as="geometry"/>
                </mxCell>
                <mxCell id="161" value="" style="shape=partialRectangle;html=1;whiteSpace=wrap;collapsible=0;dropTarget=0;pointerEvents=0;fillColor=none;top=0;left=0;bottom=0;right=0;points=[[0,0.5],[1,0.5]];portConstraint=eastwest;" vertex="1" parent="157">
                    <mxGeometry y="120" width="387" height="30" as="geometry"/>
                </mxCell>
                <mxCell id="162" value="" style="shape=partialRectangle;html=1;whiteSpace=wrap;connectable=0;fillColor=none;top=0;left=0;bottom=0;right=0;overflow=hidden;labelBackgroundColor=none;labelBorderColor=none;fontColor=#000000;" vertex="1" parent="161">
                    <mxGeometry width="86" height="30" as="geometry"/>
                </mxCell>
                <mxCell id="163" value="" style="shape=partialRectangle;html=1;whiteSpace=wrap;connectable=0;fillColor=none;top=0;left=0;bottom=0;right=0;align=left;spacingLeft=6;overflow=hidden;labelBackgroundColor=none;labelBorderColor=none;fontColor=#000000;" vertex="1" parent="161">
                    <mxGeometry x="86" width="301" height="30" as="geometry"/>
                </mxCell>
                <mxCell id="164" value="" style="shape=partialRectangle;html=1;whiteSpace=wrap;collapsible=0;dropTarget=0;pointerEvents=0;fillColor=none;top=0;left=0;bottom=0;right=0;points=[[0,0.5],[1,0.5]];portConstraint=eastwest;" vertex="1" parent="157">
                    <mxGeometry y="150" width="387" height="36" as="geometry"/>
                </mxCell>
                <mxCell id="165" value="" style="shape=partialRectangle;html=1;whiteSpace=wrap;connectable=0;fillColor=none;top=0;left=0;bottom=0;right=0;overflow=hidden;labelBackgroundColor=none;labelBorderColor=none;fontColor=#000000;" vertex="1" parent="164">
                    <mxGeometry width="86" height="36" as="geometry"/>
                </mxCell>
                <mxCell id="166" value="" style="shape=partialRectangle;html=1;whiteSpace=wrap;connectable=0;fillColor=none;top=0;left=0;bottom=0;right=0;align=left;spacingLeft=6;overflow=hidden;labelBackgroundColor=none;labelBorderColor=none;fontColor=#000000;" vertex="1" parent="164">
                    <mxGeometry x="86" width="301" height="36" as="geometry"/>
                </mxCell>
                <mxCell id="173" value="*" style="text;html=1;align=center;verticalAlign=middle;resizable=0;points=[];autosize=1;strokeColor=none;fontSize=60;fontColor=#000000;" vertex="1" parent="419">
                    <mxGeometry x="1153" y="130" width="34" height="77" as="geometry"/>
                </mxCell>
                <mxCell id="174" value="1" style="text;html=1;align=center;verticalAlign=middle;resizable=0;points=[];autosize=1;strokeColor=none;fontSize=60;fontColor=#000000;" vertex="1" parent="419">
                    <mxGeometry x="1431" y="39" width="44" height="77" as="geometry"/>
                </mxCell>
                <mxCell id="246" style="edgeStyle=orthogonalEdgeStyle;rounded=0;orthogonalLoop=1;jettySize=auto;html=1;entryX=1;entryY=0.5;entryDx=0;entryDy=0;fontSize=20;fontColor=#000000;strokeColor=#000000;strokeWidth=3;" edge="1" parent="419" source="171" target="199">
                    <mxGeometry x="21" as="geometry"/>
                </mxCell>
                <mxCell id="171" value="" style="rhombus;whiteSpace=wrap;html=1;labelBackgroundColor=none;fontSize=25;fontColor=#000000;gradientColor=none;" vertex="1" parent="419">
                    <mxGeometry x="1274" y="94" width="90" height="90" as="geometry"/>
                </mxCell>
                <mxCell id="202" value="Subjects" style="shape=table;startSize=30;container=1;collapsible=0;childLayout=tableLayout;fixedRows=1;rowLines=0;fontStyle=1;align=center;swimlaneFillColor=#ffffff;labelBackgroundColor=none;fillColor=#a20025;strokeColor=#6F0000;fontColor=#ffffff;fontSize=25;" vertex="1" parent="419">
                    <mxGeometry x="21" y="198" width="387" height="170" as="geometry"/>
                </mxCell>
                <mxCell id="203" value="" style="shape=partialRectangle;html=1;whiteSpace=wrap;collapsible=0;dropTarget=0;pointerEvents=0;fillColor=none;top=0;left=0;bottom=1;right=0;points=[[0,0.5],[1,0.5]];portConstraint=eastwest;" vertex="1" parent="202">
                    <mxGeometry y="30" width="387" height="30" as="geometry"/>
                </mxCell>
                <mxCell id="204" value="PK" style="shape=partialRectangle;html=1;whiteSpace=wrap;connectable=0;fillColor=none;top=0;left=0;bottom=0;right=0;overflow=hidden;labelBackgroundColor=none;labelBorderColor=none;fontColor=#000000;fontSize=20;" vertex="1" parent="203">
                    <mxGeometry width="86" height="30" as="geometry"/>
                </mxCell>
                <mxCell id="205" value="Id" style="shape=partialRectangle;html=1;whiteSpace=wrap;connectable=0;fillColor=none;top=0;left=0;bottom=0;right=0;align=left;spacingLeft=6;overflow=hidden;labelBackgroundColor=none;labelBorderColor=none;fontColor=#000000;fontSize=20;" vertex="1" parent="203">
                    <mxGeometry x="86" width="301" height="30" as="geometry"/>
                </mxCell>
                <mxCell id="206" value="" style="shape=partialRectangle;html=1;whiteSpace=wrap;collapsible=0;dropTarget=0;pointerEvents=0;fillColor=none;top=0;left=0;bottom=1;right=0;points=[[0,0.5],[1,0.5]];portConstraint=eastwest;" vertex="1" parent="202">
                    <mxGeometry y="60" width="387" height="30" as="geometry"/>
                </mxCell>
                <mxCell id="207" value="FK" style="shape=partialRectangle;html=1;whiteSpace=wrap;connectable=0;fillColor=none;top=0;left=0;bottom=0;right=0;overflow=hidden;labelBackgroundColor=none;labelBorderColor=none;fontColor=#000000;fontSize=20;" vertex="1" parent="206">
                    <mxGeometry width="86" height="30" as="geometry"/>
                </mxCell>
                <mxCell id="208" value="course_id" style="shape=partialRectangle;html=1;whiteSpace=wrap;connectable=0;fillColor=none;top=0;left=0;bottom=0;right=0;align=left;spacingLeft=6;overflow=hidden;labelBackgroundColor=none;labelBorderColor=none;fontColor=#000000;fontSize=20;" vertex="1" parent="206">
                    <mxGeometry x="86" width="301" height="30" as="geometry"/>
                </mxCell>
                <mxCell id="209" value="" style="shape=partialRectangle;html=1;whiteSpace=wrap;collapsible=0;dropTarget=0;pointerEvents=0;fillColor=none;top=0;left=0;bottom=1;right=0;points=[[0,0.5],[1,0.5]];portConstraint=eastwest;" vertex="1" parent="202">
                    <mxGeometry y="90" width="387" height="30" as="geometry"/>
                </mxCell>
                <mxCell id="210" value="" style="shape=partialRectangle;html=1;whiteSpace=wrap;connectable=0;fillColor=none;top=0;left=0;bottom=0;right=0;overflow=hidden;labelBackgroundColor=none;labelBorderColor=none;fontColor=#000000;" vertex="1" parent="209">
                    <mxGeometry width="86" height="30" as="geometry"/>
                </mxCell>
                <mxCell id="211" value="name:" style="shape=partialRectangle;html=1;whiteSpace=wrap;connectable=0;fillColor=none;top=0;left=0;bottom=0;right=0;align=left;spacingLeft=6;overflow=hidden;labelBackgroundColor=none;labelBorderColor=none;fontColor=#000000;fontSize=20;" vertex="1" parent="209">
                    <mxGeometry x="86" width="301" height="30" as="geometry"/>
                </mxCell>
                <mxCell id="212" value="" style="shape=partialRectangle;html=1;whiteSpace=wrap;collapsible=0;dropTarget=0;pointerEvents=0;fillColor=none;top=0;left=0;bottom=0;right=0;points=[[0,0.5],[1,0.5]];portConstraint=eastwest;" vertex="1" parent="202">
                    <mxGeometry y="120" width="387" height="30" as="geometry"/>
                </mxCell>
                <mxCell id="213" value="" style="shape=partialRectangle;html=1;whiteSpace=wrap;connectable=0;fillColor=none;top=0;left=0;bottom=0;right=0;overflow=hidden;labelBackgroundColor=none;labelBorderColor=none;fontColor=#000000;" vertex="1" parent="212">
                    <mxGeometry width="86" height="30" as="geometry"/>
                </mxCell>
                <mxCell id="214" value="" style="shape=partialRectangle;html=1;whiteSpace=wrap;connectable=0;fillColor=none;top=0;left=0;bottom=0;right=0;align=left;spacingLeft=6;overflow=hidden;labelBackgroundColor=none;labelBorderColor=none;fontColor=#000000;" vertex="1" parent="212">
                    <mxGeometry x="86" width="301" height="30" as="geometry"/>
                </mxCell>
                <mxCell id="215" value="" style="shape=partialRectangle;html=1;whiteSpace=wrap;collapsible=0;dropTarget=0;pointerEvents=0;fillColor=none;top=0;left=0;bottom=0;right=0;points=[[0,0.5],[1,0.5]];portConstraint=eastwest;" vertex="1" parent="202">
                    <mxGeometry y="150" width="387" height="20" as="geometry"/>
                </mxCell>
                <mxCell id="216" value="" style="shape=partialRectangle;html=1;whiteSpace=wrap;connectable=0;fillColor=none;top=0;left=0;bottom=0;right=0;overflow=hidden;labelBackgroundColor=none;labelBorderColor=none;fontColor=#000000;" vertex="1" parent="215">
                    <mxGeometry width="86" height="20" as="geometry"/>
                </mxCell>
                <mxCell id="217" value="" style="shape=partialRectangle;html=1;whiteSpace=wrap;connectable=0;fillColor=none;top=0;left=0;bottom=0;right=0;align=left;spacingLeft=6;overflow=hidden;labelBackgroundColor=none;labelBorderColor=none;fontColor=#000000;" vertex="1" parent="215">
                    <mxGeometry x="86" width="301" height="20" as="geometry"/>
                </mxCell>
                <mxCell id="245" style="edgeStyle=orthogonalEdgeStyle;rounded=0;orthogonalLoop=1;jettySize=auto;html=1;entryX=1;entryY=0.5;entryDx=0;entryDy=0;fontSize=20;fontColor=#000000;strokeColor=#000000;strokeWidth=3;" edge="1" parent="419" source="243" target="209">
                    <mxGeometry x="21" as="geometry"/>
                </mxCell>
                <mxCell id="243" value="" style="rhombus;whiteSpace=wrap;html=1;labelBackgroundColor=none;fontSize=25;fontColor=#000000;gradientColor=none;" vertex="1" parent="419">
                    <mxGeometry x="522" y="205" width="90" height="90" as="geometry"/>
                </mxCell>
                <mxCell id="244" style="edgeStyle=orthogonalEdgeStyle;rounded=0;orthogonalLoop=1;jettySize=auto;html=1;entryX=1;entryY=0.5;entryDx=0;entryDy=0;fontSize=20;fontColor=#000000;strokeColor=#000000;strokeWidth=3;" edge="1" parent="419" source="199" target="243">
                    <mxGeometry x="21" as="geometry"/>
                </mxCell>
                <mxCell id="247" style="edgeStyle=orthogonalEdgeStyle;rounded=0;orthogonalLoop=1;jettySize=auto;html=1;entryX=1;entryY=0.5;entryDx=0;entryDy=0;fontSize=20;fontColor=#000000;strokeColor=#000000;strokeWidth=3;" edge="1" parent="419" source="175" target="171">
                    <mxGeometry x="21" as="geometry"/>
                </mxCell>
                <mxCell id="248" value="*" style="text;html=1;align=center;verticalAlign=middle;resizable=0;points=[];autosize=1;strokeColor=none;fontSize=60;fontColor=#000000;" vertex="1" parent="419">
                    <mxGeometry x="434" y="168" width="34" height="77" as="geometry"/>
                </mxCell>
                <mxCell id="251" value="Teachers" style="shape=table;startSize=30;container=1;collapsible=0;childLayout=tableLayout;fixedRows=1;rowLines=0;fontStyle=1;align=center;swimlaneFillColor=#ffffff;labelBackgroundColor=none;fillColor=#d80073;strokeColor=#A50040;fontColor=#ffffff;fontSize=25;" vertex="1" parent="419">
                    <mxGeometry y="960" width="387" height="140" as="geometry"/>
                </mxCell>
                <mxCell id="252" value="" style="shape=partialRectangle;html=1;whiteSpace=wrap;collapsible=0;dropTarget=0;pointerEvents=0;fillColor=none;top=0;left=0;bottom=1;right=0;points=[[0,0.5],[1,0.5]];portConstraint=eastwest;" vertex="1" parent="251">
                    <mxGeometry y="30" width="387" height="30" as="geometry"/>
                </mxCell>
                <mxCell id="253" value="PK" style="shape=partialRectangle;html=1;whiteSpace=wrap;connectable=0;fillColor=none;top=0;left=0;bottom=0;right=0;overflow=hidden;labelBackgroundColor=none;labelBorderColor=none;fontColor=#000000;fontSize=20;" vertex="1" parent="252">
                    <mxGeometry width="86" height="30" as="geometry"/>
                </mxCell>
                <mxCell id="254" value="Id" style="shape=partialRectangle;html=1;whiteSpace=wrap;connectable=0;fillColor=none;top=0;left=0;bottom=0;right=0;align=left;spacingLeft=6;overflow=hidden;labelBackgroundColor=none;labelBorderColor=none;fontColor=#000000;fontSize=20;" vertex="1" parent="252">
                    <mxGeometry x="86" width="301" height="30" as="geometry"/>
                </mxCell>
                <mxCell id="258" value="" style="shape=partialRectangle;html=1;whiteSpace=wrap;collapsible=0;dropTarget=0;pointerEvents=0;fillColor=none;top=0;left=0;bottom=1;right=0;points=[[0,0.5],[1,0.5]];portConstraint=eastwest;" vertex="1" parent="251">
                    <mxGeometry y="60" width="387" height="30" as="geometry"/>
                </mxCell>
                <mxCell id="259" value="" style="shape=partialRectangle;html=1;whiteSpace=wrap;connectable=0;fillColor=none;top=0;left=0;bottom=0;right=0;overflow=hidden;labelBackgroundColor=none;labelBorderColor=none;fontColor=#000000;" vertex="1" parent="258">
                    <mxGeometry width="86" height="30" as="geometry"/>
                </mxCell>
                <mxCell id="260" value="name:" style="shape=partialRectangle;html=1;whiteSpace=wrap;connectable=0;fillColor=none;top=0;left=0;bottom=0;right=0;align=left;spacingLeft=6;overflow=hidden;labelBackgroundColor=none;labelBorderColor=none;fontColor=#000000;fontSize=20;" vertex="1" parent="258">
                    <mxGeometry x="86" width="301" height="30" as="geometry"/>
                </mxCell>
                <mxCell id="261" value="" style="shape=partialRectangle;html=1;whiteSpace=wrap;collapsible=0;dropTarget=0;pointerEvents=0;fillColor=none;top=0;left=0;bottom=0;right=0;points=[[0,0.5],[1,0.5]];portConstraint=eastwest;" vertex="1" parent="251">
                    <mxGeometry y="90" width="387" height="30" as="geometry"/>
                </mxCell>
                <mxCell id="262" value="" style="shape=partialRectangle;html=1;whiteSpace=wrap;connectable=0;fillColor=none;top=0;left=0;bottom=0;right=0;overflow=hidden;labelBackgroundColor=none;labelBorderColor=none;fontColor=#000000;" vertex="1" parent="261">
                    <mxGeometry width="86" height="30" as="geometry"/>
                </mxCell>
                <mxCell id="263" value="" style="shape=partialRectangle;html=1;whiteSpace=wrap;connectable=0;fillColor=none;top=0;left=0;bottom=0;right=0;align=left;spacingLeft=6;overflow=hidden;labelBackgroundColor=none;labelBorderColor=none;fontColor=#000000;" vertex="1" parent="261">
                    <mxGeometry x="86" width="301" height="30" as="geometry"/>
                </mxCell>
                <mxCell id="264" value="" style="shape=partialRectangle;html=1;whiteSpace=wrap;collapsible=0;dropTarget=0;pointerEvents=0;fillColor=none;top=0;left=0;bottom=0;right=0;points=[[0,0.5],[1,0.5]];portConstraint=eastwest;" vertex="1" parent="251">
                    <mxGeometry y="120" width="387" height="20" as="geometry"/>
                </mxCell>
                <mxCell id="265" value="" style="shape=partialRectangle;html=1;whiteSpace=wrap;connectable=0;fillColor=none;top=0;left=0;bottom=0;right=0;overflow=hidden;labelBackgroundColor=none;labelBorderColor=none;fontColor=#000000;" vertex="1" parent="264">
                    <mxGeometry width="86" height="20" as="geometry"/>
                </mxCell>
                <mxCell id="266" value="" style="shape=partialRectangle;html=1;whiteSpace=wrap;connectable=0;fillColor=none;top=0;left=0;bottom=0;right=0;align=left;spacingLeft=6;overflow=hidden;labelBackgroundColor=none;labelBorderColor=none;fontColor=#000000;" vertex="1" parent="264">
                    <mxGeometry x="86" width="301" height="20" as="geometry"/>
                </mxCell>
                <mxCell id="282" value="1" style="text;html=1;align=center;verticalAlign=middle;resizable=0;points=[];autosize=1;strokeColor=none;fontSize=60;fontColor=#000000;" vertex="1" parent="419">
                    <mxGeometry x="649" y="119" width="44" height="77" as="geometry"/>
                </mxCell>
                <mxCell id="283" value="" style="rhombus;whiteSpace=wrap;html=1;labelBackgroundColor=none;fontSize=25;fontColor=#000000;gradientColor=none;" vertex="1" parent="419">
                    <mxGeometry x="152" y="425" width="90" height="90" as="geometry"/>
                </mxCell>
                <mxCell id="341" style="edgeStyle=orthogonalEdgeStyle;rounded=0;orthogonalLoop=1;jettySize=auto;html=1;entryX=0.5;entryY=0;entryDx=0;entryDy=0;fontSize=20;fontColor=#000000;strokeColor=#000000;strokeWidth=3;" edge="1" parent="419" source="202" target="283">
                    <mxGeometry relative="1" as="geometry"/>
                </mxCell>
                <mxCell id="321" value="subjects_teachers" style="shape=table;startSize=40;container=1;collapsible=0;childLayout=tableLayout;fixedRows=1;rowLines=0;fontStyle=1;align=center;swimlaneFillColor=#ffffff;labelBackgroundColor=none;fillColor=#fa6800;strokeColor=#C73500;fontColor=#000000;fontSize=25;" vertex="1" parent="419">
                    <mxGeometry x="4" y="580" width="387" height="150" as="geometry"/>
                </mxCell>
                <mxCell id="325" value="" style="shape=partialRectangle;html=1;whiteSpace=wrap;collapsible=0;dropTarget=0;pointerEvents=0;fillColor=none;top=0;left=0;bottom=1;right=0;points=[[0,0.5],[1,0.5]];portConstraint=eastwest;" vertex="1" parent="321">
                    <mxGeometry y="40" width="387" height="30" as="geometry"/>
                </mxCell>
                <mxCell id="326" value="FK" style="shape=partialRectangle;html=1;whiteSpace=wrap;connectable=0;fillColor=none;top=0;left=0;bottom=0;right=0;overflow=hidden;labelBackgroundColor=none;labelBorderColor=none;fontColor=#000000;fontSize=20;" vertex="1" parent="325">
                    <mxGeometry width="86" height="30" as="geometry"/>
                </mxCell>
                <mxCell id="327" value="subject_id" style="shape=partialRectangle;html=1;whiteSpace=wrap;connectable=0;fillColor=none;top=0;left=0;bottom=0;right=0;align=left;spacingLeft=6;overflow=hidden;labelBackgroundColor=none;labelBorderColor=none;fontColor=#000000;fontSize=20;" vertex="1" parent="325">
                    <mxGeometry x="86" width="301" height="30" as="geometry"/>
                </mxCell>
                <mxCell id="337" value="" style="shape=partialRectangle;html=1;whiteSpace=wrap;collapsible=0;dropTarget=0;pointerEvents=0;fillColor=none;top=0;left=0;bottom=1;right=0;points=[[0,0.5],[1,0.5]];portConstraint=eastwest;" vertex="1" parent="321">
                    <mxGeometry y="70" width="387" height="30" as="geometry"/>
                </mxCell>
                <mxCell id="338" value="FK" style="shape=partialRectangle;html=1;whiteSpace=wrap;connectable=0;fillColor=none;top=0;left=0;bottom=0;right=0;overflow=hidden;labelBackgroundColor=none;labelBorderColor=none;fontColor=#000000;fontSize=20;" vertex="1" parent="337">
                    <mxGeometry width="86" height="30" as="geometry"/>
                </mxCell>
                <mxCell id="339" value="teacher_id" style="shape=partialRectangle;html=1;whiteSpace=wrap;connectable=0;fillColor=none;top=0;left=0;bottom=0;right=0;align=left;spacingLeft=6;overflow=hidden;labelBackgroundColor=none;labelBorderColor=none;fontColor=#000000;fontSize=20;" vertex="1" parent="337">
                    <mxGeometry x="86" width="301" height="30" as="geometry"/>
                </mxCell>
                <mxCell id="331" value="" style="shape=partialRectangle;html=1;whiteSpace=wrap;collapsible=0;dropTarget=0;pointerEvents=0;fillColor=none;top=0;left=0;bottom=0;right=0;points=[[0,0.5],[1,0.5]];portConstraint=eastwest;" vertex="1" parent="321">
                    <mxGeometry y="100" width="387" height="30" as="geometry"/>
                </mxCell>
                <mxCell id="332" value="" style="shape=partialRectangle;html=1;whiteSpace=wrap;connectable=0;fillColor=none;top=0;left=0;bottom=0;right=0;overflow=hidden;labelBackgroundColor=none;labelBorderColor=none;fontColor=#000000;" vertex="1" parent="331">
                    <mxGeometry width="86" height="30" as="geometry"/>
                </mxCell>
                <mxCell id="333" value="" style="shape=partialRectangle;html=1;whiteSpace=wrap;connectable=0;fillColor=none;top=0;left=0;bottom=0;right=0;align=left;spacingLeft=6;overflow=hidden;labelBackgroundColor=none;labelBorderColor=none;fontColor=#000000;" vertex="1" parent="331">
                    <mxGeometry x="86" width="301" height="30" as="geometry"/>
                </mxCell>
                <mxCell id="334" value="" style="shape=partialRectangle;html=1;whiteSpace=wrap;collapsible=0;dropTarget=0;pointerEvents=0;fillColor=none;top=0;left=0;bottom=0;right=0;points=[[0,0.5],[1,0.5]];portConstraint=eastwest;" vertex="1" parent="321">
                    <mxGeometry y="130" width="387" height="20" as="geometry"/>
                </mxCell>
                <mxCell id="335" value="" style="shape=partialRectangle;html=1;whiteSpace=wrap;connectable=0;fillColor=none;top=0;left=0;bottom=0;right=0;overflow=hidden;labelBackgroundColor=none;labelBorderColor=none;fontColor=#000000;" vertex="1" parent="334">
                    <mxGeometry width="86" height="20" as="geometry"/>
                </mxCell>
                <mxCell id="336" value="" style="shape=partialRectangle;html=1;whiteSpace=wrap;connectable=0;fillColor=none;top=0;left=0;bottom=0;right=0;align=left;spacingLeft=6;overflow=hidden;labelBackgroundColor=none;labelBorderColor=none;fontColor=#000000;" vertex="1" parent="334">
                    <mxGeometry x="86" width="301" height="20" as="geometry"/>
                </mxCell>
                <mxCell id="340" style="edgeStyle=orthogonalEdgeStyle;rounded=0;orthogonalLoop=1;jettySize=auto;html=1;entryX=0.5;entryY=0;entryDx=0;entryDy=0;fontSize=20;fontColor=#000000;strokeColor=#000000;strokeWidth=3;" edge="1" parent="419" source="283" target="321">
                    <mxGeometry relative="1" as="geometry"/>
                </mxCell>
                <mxCell id="342" value="*" style="text;html=1;align=center;verticalAlign=middle;resizable=0;points=[];autosize=1;strokeColor=none;fontSize=60;fontColor=#000000;" vertex="1" parent="419">
                    <mxGeometry x="346" y="379" width="34" height="77" as="geometry"/>
                </mxCell>
                <mxCell id="343" value="1" style="text;html=1;align=center;verticalAlign=middle;resizable=0;points=[];autosize=1;strokeColor=none;fontSize=60;fontColor=#000000;" vertex="1" parent="419">
                    <mxGeometry x="333" y="502" width="44" height="77" as="geometry"/>
                </mxCell>
                <mxCell id="344" value="1" style="text;html=1;align=center;verticalAlign=middle;resizable=0;points=[];autosize=1;strokeColor=none;fontSize=60;fontColor=#000000;" vertex="1" parent="419">
                    <mxGeometry x="335" y="792" width="44" height="77" as="geometry"/>
                </mxCell>
                <mxCell id="345" value="*" style="text;html=1;align=center;verticalAlign=middle;resizable=0;points=[];autosize=1;strokeColor=none;fontSize=60;fontColor=#000000;" vertex="1" parent="419">
                    <mxGeometry x="345" y="898" width="34" height="77" as="geometry"/>
                </mxCell>
                <mxCell id="351" style="edgeStyle=none;rounded=0;orthogonalLoop=1;jettySize=auto;html=1;exitX=0.5;exitY=0;exitDx=0;exitDy=0;fontSize=20;fontColor=#000000;strokeColor=#000000;strokeWidth=3;entryX=0.483;entryY=1.251;entryDx=0;entryDy=0;entryPerimeter=0;" edge="1" parent="419" source="346" target="334">
                    <mxGeometry relative="1" as="geometry">
                        <mxPoint x="190" y="758" as="targetPoint"/>
                    </mxGeometry>
                </mxCell>
                <mxCell id="346" value="" style="rhombus;whiteSpace=wrap;html=1;labelBackgroundColor=none;fontSize=25;fontColor=#000000;gradientColor=none;" vertex="1" parent="419">
                    <mxGeometry x="146" y="800" width="90" height="90" as="geometry"/>
                </mxCell>
                <mxCell id="352" style="edgeStyle=none;rounded=0;orthogonalLoop=1;jettySize=auto;html=1;entryX=0.5;entryY=1;entryDx=0;entryDy=0;fontSize=20;fontColor=#000000;strokeColor=#000000;strokeWidth=3;" edge="1" parent="419" source="251" target="346">
                    <mxGeometry relative="1" as="geometry"/>
                </mxCell>
                <mxCell id="353" value="sessions" style="shape=table;startSize=35;container=1;collapsible=0;childLayout=tableLayout;fixedRows=1;rowLines=0;fontStyle=1;align=center;swimlaneFillColor=#ffffff;labelBackgroundColor=none;fillColor=#6a00ff;strokeColor=#3700CC;fontColor=#ffffff;fontSize=25;" vertex="1" parent="419">
                    <mxGeometry x="746" y="826" width="387" height="150" as="geometry"/>
                </mxCell>
                <mxCell id="354" value="" style="shape=partialRectangle;html=1;whiteSpace=wrap;collapsible=0;dropTarget=0;pointerEvents=0;fillColor=none;top=0;left=0;bottom=1;right=0;points=[[0,0.5],[1,0.5]];portConstraint=eastwest;" vertex="1" parent="353">
                    <mxGeometry y="35" width="387" height="30" as="geometry"/>
                </mxCell>
                <mxCell id="355" value="PK" style="shape=partialRectangle;html=1;whiteSpace=wrap;connectable=0;fillColor=none;top=0;left=0;bottom=0;right=0;overflow=hidden;labelBackgroundColor=none;labelBorderColor=none;fontColor=#000000;fontSize=20;" vertex="1" parent="354">
                    <mxGeometry width="86" height="30" as="geometry"/>
                </mxCell>
                <mxCell id="356" value="id" style="shape=partialRectangle;html=1;whiteSpace=wrap;connectable=0;fillColor=none;top=0;left=0;bottom=0;right=0;align=left;spacingLeft=6;overflow=hidden;labelBackgroundColor=none;labelBorderColor=none;fontColor=#000000;fontSize=20;" vertex="1" parent="354">
                    <mxGeometry x="86" width="301" height="30" as="geometry"/>
                </mxCell>
                <mxCell id="357" value="" style="shape=partialRectangle;html=1;whiteSpace=wrap;collapsible=0;dropTarget=0;pointerEvents=0;fillColor=none;top=0;left=0;bottom=1;right=0;points=[[0,0.5],[1,0.5]];portConstraint=eastwest;" vertex="1" parent="353">
                    <mxGeometry y="65" width="387" height="30" as="geometry"/>
                </mxCell>
                <mxCell id="358" value="FK" style="shape=partialRectangle;html=1;whiteSpace=wrap;connectable=0;fillColor=none;top=0;left=0;bottom=0;right=0;overflow=hidden;labelBackgroundColor=none;labelBorderColor=none;fontColor=#000000;fontSize=20;" vertex="1" parent="357">
                    <mxGeometry width="86" height="30" as="geometry"/>
                </mxCell>
                <mxCell id="359" value="subject-teacher_id" style="shape=partialRectangle;html=1;whiteSpace=wrap;connectable=0;fillColor=none;top=0;left=0;bottom=0;right=0;align=left;spacingLeft=6;overflow=hidden;labelBackgroundColor=none;labelBorderColor=none;fontColor=#000000;fontSize=20;" vertex="1" parent="357">
                    <mxGeometry x="86" width="301" height="30" as="geometry"/>
                </mxCell>
                <mxCell id="360" value="" style="shape=partialRectangle;html=1;whiteSpace=wrap;collapsible=0;dropTarget=0;pointerEvents=0;fillColor=none;top=0;left=0;bottom=0;right=0;points=[[0,0.5],[1,0.5]];portConstraint=eastwest;" vertex="1" parent="353">
                    <mxGeometry y="95" width="387" height="30" as="geometry"/>
                </mxCell>
                <mxCell id="361" value="" style="shape=partialRectangle;html=1;whiteSpace=wrap;connectable=0;fillColor=none;top=0;left=0;bottom=0;right=0;overflow=hidden;labelBackgroundColor=none;labelBorderColor=none;fontColor=#000000;" vertex="1" parent="360">
                    <mxGeometry width="86" height="30" as="geometry"/>
                </mxCell>
                <mxCell id="362" value="" style="shape=partialRectangle;html=1;whiteSpace=wrap;connectable=0;fillColor=none;top=0;left=0;bottom=0;right=0;align=left;spacingLeft=6;overflow=hidden;labelBackgroundColor=none;labelBorderColor=none;fontColor=#000000;" vertex="1" parent="360">
                    <mxGeometry x="86" width="301" height="30" as="geometry"/>
                </mxCell>
                <mxCell id="363" value="" style="shape=partialRectangle;html=1;whiteSpace=wrap;collapsible=0;dropTarget=0;pointerEvents=0;fillColor=none;top=0;left=0;bottom=0;right=0;points=[[0,0.5],[1,0.5]];portConstraint=eastwest;" vertex="1" parent="353">
                    <mxGeometry y="125" width="387" height="20" as="geometry"/>
                </mxCell>
                <mxCell id="364" value="" style="shape=partialRectangle;html=1;whiteSpace=wrap;connectable=0;fillColor=none;top=0;left=0;bottom=0;right=0;overflow=hidden;labelBackgroundColor=none;labelBorderColor=none;fontColor=#000000;" vertex="1" parent="363">
                    <mxGeometry width="86" height="20" as="geometry"/>
                </mxCell>
                <mxCell id="365" value="" style="shape=partialRectangle;html=1;whiteSpace=wrap;connectable=0;fillColor=none;top=0;left=0;bottom=0;right=0;align=left;spacingLeft=6;overflow=hidden;labelBackgroundColor=none;labelBorderColor=none;fontColor=#000000;" vertex="1" parent="363">
                    <mxGeometry x="86" width="301" height="20" as="geometry"/>
                </mxCell>
                <mxCell id="373" style="edgeStyle=orthogonalEdgeStyle;rounded=0;orthogonalLoop=1;jettySize=auto;html=1;fontSize=20;fontColor=#000000;strokeColor=#000000;strokeWidth=3;" edge="1" parent="419" source="366" target="357">
                    <mxGeometry relative="1" as="geometry"/>
                </mxCell>
                <mxCell id="366" value="" style="rhombus;whiteSpace=wrap;html=1;labelBackgroundColor=none;fontSize=25;fontColor=#000000;gradientColor=none;" vertex="1" parent="419">
                    <mxGeometry x="497" y="845" width="90" height="90" as="geometry"/>
                </mxCell>
                <mxCell id="367" value="*" style="text;html=1;align=center;verticalAlign=middle;resizable=0;points=[];autosize=1;strokeColor=none;fontSize=60;fontColor=#000000;" vertex="1" parent="419">
                    <mxGeometry x="449" y="594" width="34" height="77" as="geometry"/>
                </mxCell>
                <mxCell id="370" value="1" style="text;html=1;align=center;verticalAlign=middle;resizable=0;points=[];autosize=1;strokeColor=none;fontSize=60;fontColor=#000000;" vertex="1" parent="419">
                    <mxGeometry x="644" y="794" width="44" height="77" as="geometry"/>
                </mxCell>
                <mxCell id="372" style="edgeStyle=orthogonalEdgeStyle;rounded=0;orthogonalLoop=1;jettySize=auto;html=1;exitX=1;exitY=0.5;exitDx=0;exitDy=0;entryX=0;entryY=0.5;entryDx=0;entryDy=0;fontSize=20;fontColor=#000000;strokeColor=#000000;strokeWidth=3;" edge="1" parent="419" source="337" target="366">
                    <mxGeometry relative="1" as="geometry"/>
                </mxCell>
                <mxCell id="374" value="students" style="shape=table;startSize=40;container=1;collapsible=0;childLayout=tableLayout;fixedRows=1;rowLines=0;fontStyle=1;align=center;swimlaneFillColor=#ffffff;labelBackgroundColor=none;fillColor=#e3c800;strokeColor=#B09500;fontColor=#000000;fontSize=25;" vertex="1" parent="419">
                    <mxGeometry x="743" y="487" width="387" height="150" as="geometry"/>
                </mxCell>
                <mxCell id="375" value="" style="shape=partialRectangle;html=1;whiteSpace=wrap;collapsible=0;dropTarget=0;pointerEvents=0;fillColor=none;top=0;left=0;bottom=1;right=0;points=[[0,0.5],[1,0.5]];portConstraint=eastwest;" vertex="1" parent="374">
                    <mxGeometry y="40" width="387" height="30" as="geometry"/>
                </mxCell>
                <mxCell id="376" value="PK" style="shape=partialRectangle;html=1;whiteSpace=wrap;connectable=0;fillColor=none;top=0;left=0;bottom=0;right=0;overflow=hidden;labelBackgroundColor=none;labelBorderColor=none;fontColor=#000000;fontSize=20;" vertex="1" parent="375">
                    <mxGeometry width="86" height="30" as="geometry"/>
                </mxCell>
                <mxCell id="377" value="id" style="shape=partialRectangle;html=1;whiteSpace=wrap;connectable=0;fillColor=none;top=0;left=0;bottom=0;right=0;align=left;spacingLeft=6;overflow=hidden;labelBackgroundColor=none;labelBorderColor=none;fontColor=#000000;fontSize=20;" vertex="1" parent="375">
                    <mxGeometry x="86" width="301" height="30" as="geometry"/>
                </mxCell>
                <mxCell id="378" value="" style="shape=partialRectangle;html=1;whiteSpace=wrap;collapsible=0;dropTarget=0;pointerEvents=0;fillColor=none;top=0;left=0;bottom=1;right=0;points=[[0,0.5],[1,0.5]];portConstraint=eastwest;" vertex="1" parent="374">
                    <mxGeometry y="70" width="387" height="30" as="geometry"/>
                </mxCell>
                <mxCell id="379" value="FK" style="shape=partialRectangle;html=1;whiteSpace=wrap;connectable=0;fillColor=none;top=0;left=0;bottom=0;right=0;overflow=hidden;labelBackgroundColor=none;labelBorderColor=none;fontColor=#000000;fontSize=20;" vertex="1" parent="378">
                    <mxGeometry width="86" height="30" as="geometry"/>
                </mxCell>
                <mxCell id="380" value="course_id" style="shape=partialRectangle;html=1;whiteSpace=wrap;connectable=0;fillColor=none;top=0;left=0;bottom=0;right=0;align=left;spacingLeft=6;overflow=hidden;labelBackgroundColor=none;labelBorderColor=none;fontColor=#000000;fontSize=20;" vertex="1" parent="378">
                    <mxGeometry x="86" width="301" height="30" as="geometry"/>
                </mxCell>
                <mxCell id="381" value="" style="shape=partialRectangle;html=1;whiteSpace=wrap;collapsible=0;dropTarget=0;pointerEvents=0;fillColor=none;top=0;left=0;bottom=0;right=0;points=[[0,0.5],[1,0.5]];portConstraint=eastwest;" vertex="1" parent="374">
                    <mxGeometry y="100" width="387" height="30" as="geometry"/>
                </mxCell>
                <mxCell id="382" value="" style="shape=partialRectangle;html=1;whiteSpace=wrap;connectable=0;fillColor=none;top=0;left=0;bottom=0;right=0;overflow=hidden;labelBackgroundColor=none;labelBorderColor=none;fontColor=#000000;" vertex="1" parent="381">
                    <mxGeometry width="86" height="30" as="geometry"/>
                </mxCell>
                <mxCell id="383" value="" style="shape=partialRectangle;html=1;whiteSpace=wrap;connectable=0;fillColor=none;top=0;left=0;bottom=0;right=0;align=left;spacingLeft=6;overflow=hidden;labelBackgroundColor=none;labelBorderColor=none;fontColor=#000000;" vertex="1" parent="381">
                    <mxGeometry x="86" width="301" height="30" as="geometry"/>
                </mxCell>
                <mxCell id="384" value="" style="shape=partialRectangle;html=1;whiteSpace=wrap;collapsible=0;dropTarget=0;pointerEvents=0;fillColor=none;top=0;left=0;bottom=0;right=0;points=[[0,0.5],[1,0.5]];portConstraint=eastwest;" vertex="1" parent="374">
                    <mxGeometry y="130" width="387" height="20" as="geometry"/>
                </mxCell>
                <mxCell id="385" value="" style="shape=partialRectangle;html=1;whiteSpace=wrap;connectable=0;fillColor=none;top=0;left=0;bottom=0;right=0;overflow=hidden;labelBackgroundColor=none;labelBorderColor=none;fontColor=#000000;" vertex="1" parent="384">
                    <mxGeometry width="86" height="20" as="geometry"/>
                </mxCell>
                <mxCell id="386" value="" style="shape=partialRectangle;html=1;whiteSpace=wrap;connectable=0;fillColor=none;top=0;left=0;bottom=0;right=0;align=left;spacingLeft=6;overflow=hidden;labelBackgroundColor=none;labelBorderColor=none;fontColor=#000000;" vertex="1" parent="384">
                    <mxGeometry x="86" width="301" height="20" as="geometry"/>
                </mxCell>
                <mxCell id="392" style="edgeStyle=orthogonalEdgeStyle;rounded=0;orthogonalLoop=1;jettySize=auto;html=1;fontSize=20;fontColor=#000000;strokeColor=#000000;strokeWidth=3;" edge="1" parent="419" source="388" target="374">
                    <mxGeometry relative="1" as="geometry"/>
                </mxCell>
                <mxCell id="388" value="" style="rhombus;whiteSpace=wrap;html=1;labelBackgroundColor=none;fontSize=25;fontColor=#000000;gradientColor=none;" vertex="1" parent="419">
                    <mxGeometry x="891.5" y="351" width="90" height="90" as="geometry"/>
                </mxCell>
                <mxCell id="391" style="edgeStyle=orthogonalEdgeStyle;rounded=0;orthogonalLoop=1;jettySize=auto;html=1;fontSize=20;fontColor=#000000;strokeColor=#000000;strokeWidth=3;" edge="1" parent="419" source="157" target="388">
                    <mxGeometry relative="1" as="geometry"/>
                </mxCell>
                <mxCell id="393" value="*" style="text;html=1;align=center;verticalAlign=middle;resizable=0;points=[];autosize=1;strokeColor=none;fontSize=60;fontColor=#000000;" vertex="1" parent="419">
                    <mxGeometry x="841" y="433" width="34" height="77" as="geometry"/>
                </mxCell>
                <mxCell id="394" value="1" style="text;html=1;align=center;verticalAlign=middle;resizable=0;points=[];autosize=1;strokeColor=none;fontSize=60;fontColor=#000000;" vertex="1" parent="419">
                    <mxGeometry x="835" y="302" width="44" height="77" as="geometry"/>
                </mxCell>
                <mxCell id="395" value="sessions_students" style="shape=table;startSize=40;container=1;collapsible=0;childLayout=tableLayout;fixedRows=1;rowLines=0;fontStyle=1;align=center;swimlaneFillColor=#ffffff;labelBackgroundColor=none;fillColor=#fa6800;strokeColor=#C73500;fontColor=#000000;fontSize=25;" vertex="1" parent="419">
                    <mxGeometry x="1467" y="667" width="387" height="180" as="geometry"/>
                </mxCell>
                <mxCell id="399" value="" style="shape=partialRectangle;html=1;whiteSpace=wrap;collapsible=0;dropTarget=0;pointerEvents=0;fillColor=none;top=0;left=0;bottom=1;right=0;points=[[0,0.5],[1,0.5]];portConstraint=eastwest;" vertex="1" parent="395">
                    <mxGeometry y="40" width="387" height="30" as="geometry"/>
                </mxCell>
                <mxCell id="400" value="FK" style="shape=partialRectangle;html=1;whiteSpace=wrap;connectable=0;fillColor=none;top=0;left=0;bottom=0;right=0;overflow=hidden;labelBackgroundColor=none;labelBorderColor=none;fontColor=#000000;fontSize=20;" vertex="1" parent="399">
                    <mxGeometry width="86" height="30" as="geometry"/>
                </mxCell>
                <mxCell id="401" value="student_id" style="shape=partialRectangle;html=1;whiteSpace=wrap;connectable=0;fillColor=none;top=0;left=0;bottom=0;right=0;align=left;spacingLeft=6;overflow=hidden;labelBackgroundColor=none;labelBorderColor=none;fontColor=#000000;fontSize=20;" vertex="1" parent="399">
                    <mxGeometry x="86" width="301" height="30" as="geometry"/>
                </mxCell>
                <mxCell id="416" value="" style="shape=partialRectangle;html=1;whiteSpace=wrap;collapsible=0;dropTarget=0;pointerEvents=0;fillColor=none;top=0;left=0;bottom=1;right=0;points=[[0,0.5],[1,0.5]];portConstraint=eastwest;" vertex="1" parent="395">
                    <mxGeometry y="70" width="387" height="30" as="geometry"/>
                </mxCell>
                <mxCell id="417" value="FK" style="shape=partialRectangle;html=1;whiteSpace=wrap;connectable=0;fillColor=none;top=0;left=0;bottom=0;right=0;overflow=hidden;labelBackgroundColor=none;labelBorderColor=none;fontColor=#000000;fontSize=20;" vertex="1" parent="416">
                    <mxGeometry width="86" height="30" as="geometry"/>
                </mxCell>
                <mxCell id="418" value="session_id" style="shape=partialRectangle;html=1;whiteSpace=wrap;connectable=0;fillColor=none;top=0;left=0;bottom=0;right=0;align=left;spacingLeft=6;overflow=hidden;labelBackgroundColor=none;labelBorderColor=none;fontColor=#000000;fontSize=20;" vertex="1" parent="416">
                    <mxGeometry x="86" width="301" height="30" as="geometry"/>
                </mxCell>
                <mxCell id="420" value="" style="shape=partialRectangle;html=1;whiteSpace=wrap;collapsible=0;dropTarget=0;pointerEvents=0;fillColor=none;top=0;left=0;bottom=1;right=0;points=[[0,0.5],[1,0.5]];portConstraint=eastwest;" vertex="1" parent="395">
                    <mxGeometry y="100" width="387" height="30" as="geometry"/>
                </mxCell>
                <mxCell id="421" value="" style="shape=partialRectangle;html=1;whiteSpace=wrap;connectable=0;fillColor=none;top=0;left=0;bottom=0;right=0;overflow=hidden;labelBackgroundColor=none;labelBorderColor=none;fontColor=#000000;fontSize=20;" vertex="1" parent="420">
                    <mxGeometry width="86" height="30" as="geometry"/>
                </mxCell>
                <mxCell id="422" value="vote:" style="shape=partialRectangle;html=1;whiteSpace=wrap;connectable=0;fillColor=none;top=0;left=0;bottom=0;right=0;align=left;spacingLeft=6;overflow=hidden;labelBackgroundColor=none;labelBorderColor=none;fontColor=#000000;fontSize=20;" vertex="1" parent="420">
                    <mxGeometry x="86" width="301" height="30" as="geometry"/>
                </mxCell>
                <mxCell id="402" value="" style="shape=partialRectangle;html=1;whiteSpace=wrap;collapsible=0;dropTarget=0;pointerEvents=0;fillColor=none;top=0;left=0;bottom=0;right=0;points=[[0,0.5],[1,0.5]];portConstraint=eastwest;" vertex="1" parent="395">
                    <mxGeometry y="130" width="387" height="30" as="geometry"/>
                </mxCell>
                <mxCell id="403" value="" style="shape=partialRectangle;html=1;whiteSpace=wrap;connectable=0;fillColor=none;top=0;left=0;bottom=0;right=0;overflow=hidden;labelBackgroundColor=none;labelBorderColor=none;fontColor=#000000;" vertex="1" parent="402">
                    <mxGeometry width="86" height="30" as="geometry"/>
                </mxCell>
                <mxCell id="404" value="" style="shape=partialRectangle;html=1;whiteSpace=wrap;connectable=0;fillColor=none;top=0;left=0;bottom=0;right=0;align=left;spacingLeft=6;overflow=hidden;labelBackgroundColor=none;labelBorderColor=none;fontColor=#000000;" vertex="1" parent="402">
                    <mxGeometry x="86" width="301" height="30" as="geometry"/>
                </mxCell>
                <mxCell id="405" value="" style="shape=partialRectangle;html=1;whiteSpace=wrap;collapsible=0;dropTarget=0;pointerEvents=0;fillColor=none;top=0;left=0;bottom=0;right=0;points=[[0,0.5],[1,0.5]];portConstraint=eastwest;" vertex="1" parent="395">
                    <mxGeometry y="160" width="387" height="20" as="geometry"/>
                </mxCell>
                <mxCell id="406" value="" style="shape=partialRectangle;html=1;whiteSpace=wrap;connectable=0;fillColor=none;top=0;left=0;bottom=0;right=0;overflow=hidden;labelBackgroundColor=none;labelBorderColor=none;fontColor=#000000;" vertex="1" parent="405">
                    <mxGeometry width="86" height="20" as="geometry"/>
                </mxCell>
                <mxCell id="407" value="" style="shape=partialRectangle;html=1;whiteSpace=wrap;connectable=0;fillColor=none;top=0;left=0;bottom=0;right=0;align=left;spacingLeft=6;overflow=hidden;labelBackgroundColor=none;labelBorderColor=none;fontColor=#000000;" vertex="1" parent="405">
                    <mxGeometry x="86" width="301" height="20" as="geometry"/>
                </mxCell>
                <mxCell id="411" style="edgeStyle=orthogonalEdgeStyle;rounded=0;orthogonalLoop=1;jettySize=auto;html=1;fontSize=20;fontColor=#000000;strokeColor=#000000;strokeWidth=3;" edge="1" parent="419" source="408" target="399">
                    <mxGeometry relative="1" as="geometry"/>
                </mxCell>
                <mxCell id="408" value="" style="rhombus;whiteSpace=wrap;html=1;labelBackgroundColor=none;fontSize=25;fontColor=#000000;gradientColor=none;" vertex="1" parent="419">
                    <mxGeometry x="1255" y="677" width="90" height="90" as="geometry"/>
                </mxCell>
                <mxCell id="410" style="edgeStyle=orthogonalEdgeStyle;rounded=0;orthogonalLoop=1;jettySize=auto;html=1;entryX=0.5;entryY=1;entryDx=0;entryDy=0;fontSize=20;fontColor=#000000;strokeColor=#000000;strokeWidth=3;" edge="1" parent="419" source="357" target="408">
                    <mxGeometry relative="1" as="geometry"/>
                </mxCell>
                <mxCell id="412" value="1" style="text;html=1;align=center;verticalAlign=middle;resizable=0;points=[];autosize=1;strokeColor=none;fontSize=60;fontColor=#000000;" vertex="1" parent="419">
                    <mxGeometry x="1232" y="793" width="44" height="77" as="geometry"/>
                </mxCell>
                <mxCell id="413" value="1" style="text;html=1;align=center;verticalAlign=middle;resizable=0;points=[];autosize=1;strokeColor=none;fontSize=60;fontColor=#000000;" vertex="1" parent="419">
                    <mxGeometry x="1235" y="575" width="44" height="77" as="geometry"/>
                </mxCell>
                <mxCell id="414" value="*" style="text;html=1;align=center;verticalAlign=middle;resizable=0;points=[];autosize=1;strokeColor=none;fontSize=60;fontColor=#000000;" vertex="1" parent="419">
                    <mxGeometry x="1402" y="646" width="34" height="77" as="geometry"/>
                </mxCell>
                <mxCell id="415" value="*" style="text;html=1;align=center;verticalAlign=middle;resizable=0;points=[];autosize=1;strokeColor=none;fontSize=60;fontColor=#000000;" vertex="1" parent="419">
                    <mxGeometry x="1403" y="741" width="34" height="77" as="geometry"/>
                </mxCell>
                <mxCell id="409" style="edgeStyle=orthogonalEdgeStyle;rounded=0;orthogonalLoop=1;jettySize=auto;html=1;entryX=0.5;entryY=0;entryDx=0;entryDy=0;fontSize=20;fontColor=#000000;strokeColor=#000000;strokeWidth=3;" edge="1" parent="419" source="374" target="408">
                    <mxGeometry relative="1" as="geometry"/>
                </mxCell>
            </root>
        </mxGraphModel>
    </diagram>
</mxfile>